<svg xmlns="http://www.w3.org/2000/svg" width="1280" height="360" viewBox="0 0 1280 360" role="img" aria-label="Chetan Kumar M K — Full-Stack Developer">
  <defs>
    <linearGradient id="bg" x1="0" y1="0" x2="1" y2="1">
      <stop offset="0%" stop-color="#05070d"/>
      <stop offset="55%" stop-color="#0d1117"/>
      <stop offset="100%" stop-color="#16273f"/>
    </linearGradient>
    <linearGradient id="accent" x1="0" y1="0" x2="1" y2="0">
      <stop offset="0%" stop-color="#6AA6FF"/>
      <stop offset="50%" stop-color="#8ad0ff"/>
      <stop offset="100%" stop-color="#6AA6FF"/>
    </linearGradient>
    <radialGradient id="glow" cx="50%" cy="32%" r="60%">
      <stop offset="0%" stop-color="#6AA6FF" stop-opacity="0.30"/>
      <stop offset="100%" stop-color="#6AA6FF" stop-opacity="0"/>
    </radialGradient>
    <filter id="soft" x="-20%" y="-20%" width="140%" height="140%">
      <feGaussianBlur stdDeviation="0.4"/>
    </filter>
  </defs>

  <rect width="1280" height="360" fill="url(#bg)"/>
  <circle cx="0" cy="0" r="1" fill="#ffffff" fill-opacity="0.04"/><circle cx="34" cy="0" r="1" fill="#ffffff" fill-opacity="0.04"/><circle cx="68" cy="0" r="1" fill="#ffffff" fill-opacity="0.04"/><circle cx="102" cy="0" r="1" fill="#ffffff" fill-opacity="0.04"/><circle cx="136" cy="0" r="1" fill="#ffffff" fill-opacity="0.04"/><circle cx="170" cy="0" r="1" fill="#ffffff" fill-opacity="0.04"/><circle cx="204" cy="0" r="1" fill="#ffffff" fill-opacity="0.04"/><circle cx="238" cy="0" r="1" fill="#ffffff" fill-opacity="0.04"/><circle cx="272" cy="0" r="1" fill="#ffffff" fill-opacity="0.04"/><circle cx="306" cy="0" r="1" fill="#ffffff" fill-opacity="0.04"/><circle cx="340" cy="0" r="1" fill="#ffffff" fill-opacity="0.04"/><circle cx="374" cy="0" r="1" fill="#ffffff" fill-opacity="0.04"/><circle cx="408" cy="0" r="1" fill="#ffffff" fill-opacity="0.04"/><circle cx="442" cy="0" r="1" fill="#ffffff" fill-opacity="0.04"/><circle cx="476" cy="0" r="1" fill="#ffffff" fill-opacity="0.04"/><circle cx="510" cy="0" r="1" fill="#ffffff" fill-opacity="0.04"/><circle cx="544" cy="0" r="1" fill="#ffffff" fill-opacity="0.04"/><circle cx="578" cy="0" r="1" fill="#ffffff" fill-opacity="0.04"/><circle cx="612" cy="0" r="1" fill="#ffffff" fill-opacity="0.04"/><circle cx="646" cy="0" r="1" fill="#ffffff" fill-opacity="0.04"/><circle cx="680" cy="0" r="1" fill="#ffffff" fill-opacity="0.04"/><circle cx="714" cy="0" r="1" fill="#ffffff" fill-opacity="0.04"/><circle cx="748" cy="0" r="1" fill="#ffffff" fill-opacity="0.04"/><circle cx="782" cy="0" r="1" fill="#ffffff" fill-opacity="0.04"/><circle cx="816" cy="0" r="1" fill="#ffffff" fill-opacity="0.04"/><circle cx="850" cy="0" r="1" fill="#ffffff" fill-opacity="0.04"/><circle cx="884" cy="0" r="1" fill="#ffffff" fill-opacity="0.04"/><circle cx="918" cy="0" r="1" fill="#ffffff" fill-opacity="0.04"/><circle cx="952" cy="0" r="1" fill="#ffffff" fill-opacity="0.04"/><circle cx="986" cy="0" r="1" fill="#ffffff" fill-opacity="0.04"/><circle cx="1020" cy="0" r="1" fill="#ffffff" fill-opacity="0.04"/><circle cx="1054" cy="0" r="1" fill="#ffffff" fill-opacity="0.04"/><circle cx="1088" cy="0" r="1" fill="#ffffff" fill-opacity="0.04"/><circle cx="1122" cy="0" r="1" fill="#ffffff" fill-opacity="0.04"/><circle cx="1156" cy="0" r="1" fill="#ffffff" fill-opacity="0.04"/><circle cx="1190" cy="0" r="1" fill="#ffffff" fill-opacity="0.04"/><circle cx="1224" cy="0" r="1" fill="#ffffff" fill-opacity="0.04"/><circle cx="1258" cy="0" r="1" fill="#ffffff" fill-opacity="0.04"/><circle cx="0" cy="34" r="1" fill="#ffffff" fill-opacity="0.04"/><circle cx="34" cy="34" r="1" fill="#ffffff" fill-opacity="0.04"/><circle cx="68" cy="34" r="1" fill="#ffffff" fill-opacity="0.04"/><circle cx="102" cy="34" r="1" fill="#ffffff" fill-opacity="0.04"/><circle cx="136" cy="34" r="1" fill="#ffffff" fill-opacity="0.04"/><circle cx="170" cy="34" r="1" fill="#ffffff" fill-opacity="0.04"/><circle cx="204" cy="34" r="1" fill="#ffffff" fill-opacity="0.04"/><circle cx="238" cy="34" r="1" fill="#ffffff" fill-opacity="0.04"/><circle cx="272" cy="34" r="1" fill="#ffffff" fill-opacity="0.04"/><circle cx="306" cy="34" r="1" fill="#ffffff" fill-opacity="0.04"/><circle cx="340" cy="34" r="1" fill="#ffffff" fill-opacity="0.04"/><circle cx="374" cy="34" r="1" fill="#ffffff" fill-opacity="0.04"/><circle cx="408" cy="34" r="1" fill="#ffffff" fill-opacity="0.04"/><circle cx="442" cy="34" r="1" fill="#ffffff" fill-opacity="0.04"/><circle cx="476" cy="34" r="1" fill="#ffffff" fill-opacity="0.04"/><circle cx="510" cy="34" r="1" fill="#ffffff" fill-opacity="0.04"/><circle cx="544" cy="34" r="1" fill="#ffffff" fill-opacity="0.04"/><circle cx="578" cy="34" r="1" fill="#ffffff" fill-opacity="0.04"/><circle cx="612" cy="34" r="1" fill="#ffffff" fill-opacity="0.04"/><circle cx="646" cy="34" r="1" fill="#ffffff" fill-opacity="0.04"/><circle cx="680" cy="34" r="1" fill="#ffffff" fill-opacity="0.04"/><circle cx="714" cy="34" r="1" fill="#ffffff" fill-opacity="0.04"/><circle cx="748" cy="34" r="1" fill="#ffffff" fill-opacity="0.04"/><circle cx="782" cy="34" r="1" fill="#ffffff" fill-opacity="0.04"/><circle cx="816" cy="34" r="1" fill="#ffffff" fill-opacity="0.04"/><circle cx="850" cy="34" r="1" fill="#ffffff" fill-opacity="0.04"/><circle cx="884" cy="34" r="1" fill="#ffffff" fill-opacity="0.04"/><circle cx="918" cy="34" r="1" fill="#ffffff" fill-opacity="0.04"/><circle cx="952" cy="34" r="1" fill="#ffffff" fill-opacity="0.04"/><circle cx="986" cy="34" r="1" fill="#ffffff" fill-opacity="0.04"/><circle cx="1020" cy="34" r="1" fill="#ffffff" fill-opacity="0.04"/><circle cx="1054" cy="34" r="1" fill="#ffffff" fill-opacity="0.04"/><circle cx="1088" cy="34" r="1" fill="#ffffff" fill-opacity="0.04"/><circle cx="1122" cy="34" r="1" fill="#ffffff" fill-opacity="0.04"/><circle cx="1156" cy="34" r="1" fill="#ffffff" fill-opacity="0.04"/><circle cx="1190" cy="34" r="1" fill="#ffffff" fill-opacity="0.04"/><circle cx="1224" cy="34" r="1" fill="#ffffff" fill-opacity="0.04"/><circle cx="1258" cy="34" r="1" fill="#ffffff" fill-opacity="0.04"/><circle cx="0" cy="68" r="1" fill="#ffffff" fill-opacity="0.04"/><circle cx="34" cy="68" r="1" fill="#ffffff" fill-opacity="0.04"/><circle cx="68" cy="68" r="1" fill="#ffffff" fill-opacity="0.04"/><circle cx="102" cy="68" r="1" fill="#ffffff" fill-opacity="0.04"/><circle cx="136" cy="68" r="1" fill="#ffffff" fill-opacity="0.04"/><circle cx="170" cy="68" r="1" fill="#ffffff" fill-opacity="0.04"/><circle cx="204" cy="68" r="1" fill="#ffffff" fill-opacity="0.04"/><circle cx="238" cy="68" r="1" fill="#ffffff" fill-opacity="0.04"/><circle cx="272" cy="68" r="1" fill="#ffffff" fill-opacity="0.04"/><circle cx="306" cy="68" r="1" fill="#ffffff" fill-opacity="0.04"/><circle cx="340" cy="68" r="1" fill="#ffffff" fill-opacity="0.04"/><circle cx="374" cy="68" r="1" fill="#ffffff" fill-opacity="0.04"/><circle cx="408" cy="68" r="1" fill="#ffffff" fill-opacity="0.04"/><circle cx="442" cy="68" r="1" fill="#ffffff" fill-opacity="0.04"/><circle cx="476" cy="68" r="1" fill="#ffffff" fill-opacity="0.04"/><circle cx="510" cy="68" r="1" fill="#ffffff" fill-opacity="0.04"/><circle cx="544" cy="68" r="1" fill="#ffffff" fill-opacity="0.04"/><circle cx="578" cy="68" r="1" fill="#ffffff" fill-opacity="0.04"/><circle cx="612" cy="68" r="1" fill="#ffffff" fill-opacity="0.04"/><circle cx="646" cy="68" r="1" fill="#ffffff" fill-opacity="0.04"/><circle cx="680" cy="68" r="1" fill="#ffffff" fill-opacity="0.04"/><circle cx="714" cy="68" r="1" fill="#ffffff" fill-opacity="0.04"/><circle cx="748" cy="68" r="1" fill="#ffffff" fill-opacity="0.04"/><circle cx="782" cy="68" r="1" fill="#ffffff" fill-opacity="0.04"/><circle cx="816" cy="68" r="1" fill="#ffffff" fill-opacity="0.04"/><circle cx="850" cy="68" r="1" fill="#ffffff" fill-opacity="0.04"/><circle cx="884" cy="68" r="1" fill="#ffffff" fill-opacity="0.04"/><circle cx="918" cy="68" r="1" fill="#ffffff" fill-opacity="0.04"/><circle cx="952" cy="68" r="1" fill="#ffffff" fill-opacity="0.04"/><circle cx="986" cy="68" r="1" fill="#ffffff" fill-opacity="0.04"/><circle cx="1020" cy="68" r="1" fill="#ffffff" fill-opacity="0.04"/><circle cx="1054" cy="68" r="1" fill="#ffffff" fill-opacity="0.04"/><circle cx="1088" cy="68" r="1" fill="#ffffff" fill-opacity="0.04"/><circle cx="1122" cy="68" r="1" fill="#ffffff" fill-opacity="0.04"/><circle cx="1156" cy="68" r="1" fill="#ffffff" fill-opacity="0.04"/><circle cx="1190" cy="68" r="1" fill="#ffffff" fill-opacity="0.04"/><circle cx="1224" cy="68" r="1" fill="#ffffff" fill-opacity="0.04"/><circle cx="1258" cy="68" r="1" fill="#ffffff" fill-opacity="0.04"/><circle cx="0" cy="102" r="1" fill="#ffffff" fill-opacity="0.04"/><circle cx="34" cy="102" r="1" fill="#ffffff" fill-opacity="0.04"/><circle cx="68" cy="102" r="1" fill="#ffffff" fill-opacity="0.04"/><circle cx="102" cy="102" r="1" fill="#ffffff" fill-opacity="0.04"/><circle cx="136" cy="102" r="1" fill="#ffffff" fill-opacity="0.04"/><circle cx="170" cy="102" r="1" fill="#ffffff" fill-opacity="0.04"/><circle cx="204" cy="102" r="1" fill="#ffffff" fill-opacity="0.04"/><circle cx="238" cy="102" r="1" fill="#ffffff" fill-opacity="0.04"/><circle cx="272" cy="102" r="1" fill="#ffffff" fill-opacity="0.04"/><circle cx="306" cy="102" r="1" fill="#ffffff" fill-opacity="0.04"/><circle cx="340" cy="102" r="1" fill="#ffffff" fill-opacity="0.04"/><circle cx="374" cy="102" r="1" fill="#ffffff" fill-opacity="0.04"/><circle cx="408" cy="102" r="1" fill="#ffffff" fill-opacity="0.04"/><circle cx="442" cy="102" r="1" fill="#ffffff" fill-opacity="0.04"/><circle cx="476" cy="102" r="1" fill="#ffffff" fill-opacity="0.04"/><circle cx="510" cy="102" r="1" fill="#ffffff" fill-opacity="0.04"/><circle cx="544" cy="102" r="1" fill="#ffffff" fill-opacity="0.04"/><circle cx="578" cy="102" r="1" fill="#ffffff" fill-opacity="0.04"/><circle cx="612" cy="102" r="1" fill="#ffffff" fill-opacity="0.04"/><circle cx="646" cy="102" r="1" fill="#ffffff" fill-opacity="0.04"/><circle cx="680" cy="102" r="1" fill="#ffffff" fill-opacity="0.04"/><circle cx="714" cy="102" r="1" fill="#ffffff" fill-opacity="0.04"/><circle cx="748" cy="102" r="1" fill="#ffffff" fill-opacity="0.04"/><circle cx="782" cy="102" r="1" fill="#ffffff" fill-opacity="0.04"/><circle cx="816" cy="102" r="1" fill="#ffffff" fill-opacity="0.04"/><circle cx="850" cy="102" r="1" fill="#ffffff" fill-opacity="0.04"/><circle cx="884" cy="102" r="1" fill="#ffffff" fill-opacity="0.04"/><circle cx="918" cy="102" r="1" fill="#ffffff" fill-opacity="0.04"/><circle cx="952" cy="102" r="1" fill="#ffffff" fill-opacity="0.04"/><circle cx="986" cy="102" r="1" fill="#ffffff" fill-opacity="0.04"/><circle cx="1020" cy="102" r="1" fill="#ffffff" fill-opacity="0.04"/><circle cx="1054" cy="102" r="1" fill="#ffffff" fill-opacity="0.04"/><circle cx="1088" cy="102" r="1" fill="#ffffff" fill-opacity="0.04"/><circle cx="1122" cy="102" r="1" fill="#ffffff" fill-opacity="0.04"/><circle cx="1156" cy="102" r="1" fill="#ffffff" fill-opacity="0.04"/><circle cx="1190" cy="102" r="1" fill="#ffffff" fill-opacity="0.04"/><circle cx="1224" cy="102" r="1" fill="#ffffff" fill-opacity="0.04"/><circle cx="1258" cy="102" r="1" fill="#ffffff" fill-opacity="0.04"/><circle cx="0" cy="136" r="1" fill="#ffffff" fill-opacity="0.04"/><circle cx="34" cy="136" r="1" fill="#ffffff" fill-opacity="0.04"/><circle cx="68" cy="136" r="1" fill="#ffffff" fill-opacity="0.04"/><circle cx="102" cy="136" r="1" fill="#ffffff" fill-opacity="0.04"/><circle cx="136" cy="136" r="1" fill="#ffffff" fill-opacity="0.04"/><circle cx="170" cy="136" r="1" fill="#ffffff" fill-opacity="0.04"/><circle cx="204" cy="136" r="1" fill="#ffffff" fill-opacity="0.04"/><circle cx="238" cy="136" r="1" fill="#ffffff" fill-opacity="0.04"/><circle cx="272" cy="136" r="1" fill="#ffffff" fill-opacity="0.04"/><circle cx="306" cy="136" r="1" fill="#ffffff" fill-opacity="0.04"/><circle cx="340" cy="136" r="1" fill="#ffffff" fill-opacity="0.04"/><circle cx="374" cy="136" r="1" fill="#ffffff" fill-opacity="0.04"/><circle cx="408" cy="136" r="1" fill="#ffffff" fill-opacity="0.04"/><circle cx="442" cy="136" r="1" fill="#ffffff" fill-opacity="0.04"/><circle cx="476" cy="136" r="1" fill="#ffffff" fill-opacity="0.04"/><circle cx="510" cy="136" r="1" fill="#ffffff" fill-opacity="0.04"/><circle cx="544" cy="136" r="1" fill="#ffffff" fill-opacity="0.04"/><circle cx="578" cy="136" r="1" fill="#ffffff" fill-opacity="0.04"/><circle cx="612" cy="136" r="1" fill="#ffffff" fill-opacity="0.04"/><circle cx="646" cy="136" r="1" fill="#ffffff" fill-opacity="0.04"/><circle cx="680" cy="136" r="1" fill="#ffffff" fill-opacity="0.04"/><circle cx="714" cy="136" r="1" fill="#ffffff" fill-opacity="0.04"/><circle cx="748" cy="136" r="1" fill="#ffffff" fill-opacity="0.04"/><circle cx="782" cy="136" r="1" fill="#ffffff" fill-opacity="0.04"/><circle cx="816" cy="136" r="1" fill="#ffffff" fill-opacity="0.04"/><circle cx="850" cy="136" r="1" fill="#ffffff" fill-opacity="0.04"/><circle cx="884" cy="136" r="1" fill="#ffffff" fill-opacity="0.04"/><circle cx="918" cy="136" r="1" fill="#ffffff" fill-opacity="0.04"/><circle cx="952" cy="136" r="1" fill="#ffffff" fill-opacity="0.04"/><circle cx="986" cy="136" r="1" fill="#ffffff" fill-opacity="0.04"/><circle cx="1020" cy="136" r="1" fill="#ffffff" fill-opacity="0.04"/><circle cx="1054" cy="136" r="1" fill="#ffffff" fill-opacity="0.04"/><circle cx="1088" cy="136" r="1" fill="#ffffff" fill-opacity="0.04"/><circle cx="1122" cy="136" r="1" fill="#ffffff" fill-opacity="0.04"/><circle cx="1156" cy="136" r="1" fill="#ffffff" fill-opacity="0.04"/><circle cx="1190" cy="136" r="1" fill="#ffffff" fill-opacity="0.04"/><circle cx="1224" cy="136" r="1" fill="#ffffff" fill-opacity="0.04"/><circle cx="1258" cy="136" r="1" fill="#ffffff" fill-opacity="0.04"/><circle cx="0" cy="170" r="1" fill="#ffffff" fill-opacity="0.04"/><circle cx="34" cy="170" r="1" fill="#ffffff" fill-opacity="0.04"/><circle cx="68" cy="170" r="1" fill="#ffffff" fill-opacity="0.04"/><circle cx="102" cy="170" r="1" fill="#ffffff" fill-opacity="0.04"/><circle cx="136" cy="170" r="1" fill="#ffffff" fill-opacity="0.04"/><circle cx="170" cy="170" r="1" fill="#ffffff" fill-opacity="0.04"/><circle cx="204" cy="170" r="1" fill="#ffffff" fill-opacity="0.04"/><circle cx="238" cy="170" r="1" fill="#ffffff" fill-opacity="0.04"/><circle cx="272" cy="170" r="1" fill="#ffffff" fill-opacity="0.04"/><circle cx="306" cy="170" r="1" fill="#ffffff" fill-opacity="0.04"/><circle cx="340" cy="170" r="1" fill="#ffffff" fill-opacity="0.04"/><circle cx="374" cy="170" r="1" fill="#ffffff" fill-opacity="0.04"/><circle cx="408" cy="170" r="1" fill="#ffffff" fill-opacity="0.04"/><circle cx="442" cy="170" r="1" fill="#ffffff" fill-opacity="0.04"/><circle cx="476" cy="170" r="1" fill="#ffffff" fill-opacity="0.04"/><circle cx="510" cy="170" r="1" fill="#ffffff" fill-opacity="0.04"/><circle cx="544" cy="170" r="1" fill="#ffffff" fill-opacity="0.04"/><circle cx="578" cy="170" r="1" fill="#ffffff" fill-opacity="0.04"/><circle cx="612" cy="170" r="1" fill="#ffffff" fill-opacity="0.04"/><circle cx="646" cy="170" r="1" fill="#ffffff" fill-opacity="0.04"/><circle cx="680" cy="170" r="1" fill="#ffffff" fill-opacity="0.04"/><circle cx="714" cy="170" r="1" fill="#ffffff" fill-opacity="0.04"/><circle cx="748" cy="170" r="1" fill="#ffffff" fill-opacity="0.04"/><circle cx="782" cy="170" r="1" fill="#ffffff" fill-opacity="0.04"/><circle cx="816" cy="170" r="1" fill="#ffffff" fill-opacity="0.04"/><circle cx="850" cy="170" r="1" fill="#ffffff" fill-opacity="0.04"/><circle cx="884" cy="170" r="1" fill="#ffffff" fill-opacity="0.04"/><circle cx="918" cy="170" r="1" fill="#ffffff" fill-opacity="0.04"/><circle cx="952" cy="170" r="1" fill="#ffffff" fill-opacity="0.04"/><circle cx="986" cy="170" r="1" fill="#ffffff" fill-opacity="0.04"/><circle cx="1020" cy="170" r="1" fill="#ffffff" fill-opacity="0.04"/><circle cx="1054" cy="170" r="1" fill="#ffffff" fill-opacity="0.04"/><circle cx="1088" cy="170" r="1" fill="#ffffff" fill-opacity="0.04"/><circle cx="1122" cy="170" r="1" fill="#ffffff" fill-opacity="0.04"/><circle cx="1156" cy="170" r="1" fill="#ffffff" fill-opacity="0.04"/><circle cx="1190" cy="170" r="1" fill="#ffffff" fill-opacity="0.04"/><circle cx="1224" cy="170" r="1" fill="#ffffff" fill-opacity="0.04"/><circle cx="1258" cy="170" r="1" fill="#ffffff" fill-opacity="0.04"/><circle cx="0" cy="204" r="1" fill="#ffffff" fill-opacity="0.04"/><circle cx="34" cy="204" r="1" fill="#ffffff" fill-opacity="0.04"/><circle cx="68" cy="204" r="1" fill="#ffffff" fill-opacity="0.04"/><circle cx="102" cy="204" r="1" fill="#ffffff" fill-opacity="0.04"/><circle cx="136" cy="204" r="1" fill="#ffffff" fill-opacity="0.04"/><circle cx="170" cy="204" r="1" fill="#ffffff" fill-opacity="0.04"/><circle cx="204" cy="204" r="1" fill="#ffffff" fill-opacity="0.04"/><circle cx="238" cy="204" r="1" fill="#ffffff" fill-opacity="0.04"/><circle cx="272" cy="204" r="1" fill="#ffffff" fill-opacity="0.04"/><circle cx="306" cy="204" r="1" fill="#ffffff" fill-opacity="0.04"/><circle cx="340" cy="204" r="1" fill="#ffffff" fill-opacity="0.04"/><circle cx="374" cy="204" r="1" fill="#ffffff" fill-opacity="0.04"/><circle cx="408" cy="204" r="1" fill="#ffffff" fill-opacity="0.04"/><circle cx="442" cy="204" r="1" fill="#ffffff" fill-opacity="0.04"/><circle cx="476" cy="204" r="1" fill="#ffffff" fill-opacity="0.04"/><circle cx="510" cy="204" r="1" fill="#ffffff" fill-opacity="0.04"/><circle cx="544" cy="204" r="1" fill="#ffffff" fill-opacity="0.04"/><circle cx="578" cy="204" r="1" fill="#ffffff" fill-opacity="0.04"/><circle cx="612" cy="204" r="1" fill="#ffffff" fill-opacity="0.04"/><circle cx="646" cy="204" r="1" fill="#ffffff" fill-opacity="0.04"/><circle cx="680" cy="204" r="1" fill="#ffffff" fill-opacity="0.04"/><circle cx="714" cy="204" r="1" fill="#ffffff" fill-opacity="0.04"/><circle cx="748" cy="204" r="1" fill="#ffffff" fill-opacity="0.04"/><circle cx="782" cy="204" r="1" fill="#ffffff" fill-opacity="0.04"/><circle cx="816" cy="204" r="1" fill="#ffffff" fill-opacity="0.04"/><circle cx="850" cy="204" r="1" fill="#ffffff" fill-opacity="0.04"/><circle cx="884" cy="204" r="1" fill="#ffffff" fill-opacity="0.04"/><circle cx="918" cy="204" r="1" fill="#ffffff" fill-opacity="0.04"/><circle cx="952" cy="204" r="1" fill="#ffffff" fill-opacity="0.04"/><circle cx="986" cy="204" r="1" fill="#ffffff" fill-opacity="0.04"/><circle cx="1020" cy="204" r="1" fill="#ffffff" fill-opacity="0.04"/><circle cx="1054" cy="204" r="1" fill="#ffffff" fill-opacity="0.04"/><circle cx="1088" cy="204" r="1" fill="#ffffff" fill-opacity="0.04"/><circle cx="1122" cy="204" r="1" fill="#ffffff" fill-opacity="0.04"/><circle cx="1156" cy="204" r="1" fill="#ffffff" fill-opacity="0.04"/><circle cx="1190" cy="204" r="1" fill="#ffffff" fill-opacity="0.04"/><circle cx="1224" cy="204" r="1" fill="#ffffff" fill-opacity="0.04"/><circle cx="1258" cy="204" r="1" fill="#ffffff" fill-opacity="0.04"/><circle cx="0" cy="238" r="1" fill="#ffffff" fill-opacity="0.04"/><circle cx="34" cy="238" r="1" fill="#ffffff" fill-opacity="0.04"/><circle cx="68" cy="238" r="1" fill="#ffffff" fill-opacity="0.04"/><circle cx="102" cy="238" r="1" fill="#ffffff" fill-opacity="0.04"/><circle cx="136" cy="238" r="1" fill="#ffffff" fill-opacity="0.04"/><circle cx="170" cy="238" r="1" fill="#ffffff" fill-opacity="0.04"/><circle cx="204" cy="238" r="1" fill="#ffffff" fill-opacity="0.04"/><circle cx="238" cy="238" r="1" fill="#ffffff" fill-opacity="0.04"/><circle cx="272" cy="238" r="1" fill="#ffffff" fill-opacity="0.04"/><circle cx="306" cy="238" r="1" fill="#ffffff" fill-opacity="0.04"/><circle cx="340" cy="238" r="1" fill="#ffffff" fill-opacity="0.04"/><circle cx="374" cy="238" r="1" fill="#ffffff" fill-opacity="0.04"/><circle cx="408" cy="238" r="1" fill="#ffffff" fill-opacity="0.04"/><circle cx="442" cy="238" r="1" fill="#ffffff" fill-opacity="0.04"/><circle cx="476" cy="238" r="1" fill="#ffffff" fill-opacity="0.04"/><circle cx="510" cy="238" r="1" fill="#ffffff" fill-opacity="0.04"/><circle cx="544" cy="238" r="1" fill="#ffffff" fill-opacity="0.04"/><circle cx="578" cy="238" r="1" fill="#ffffff" fill-opacity="0.04"/><circle cx="612" cy="238" r="1" fill="#ffffff" fill-opacity="0.04"/><circle cx="646" cy="238" r="1" fill="#ffffff" fill-opacity="0.04"/><circle cx="680" cy="238" r="1" fill="#ffffff" fill-opacity="0.04"/><circle cx="714" cy="238" r="1" fill="#ffffff" fill-opacity="0.04"/><circle cx="748" cy="238" r="1" fill="#ffffff" fill-opacity="0.04"/><circle cx="782" cy="238" r="1" fill="#ffffff" fill-opacity="0.04"/><circle cx="816" cy="238" r="1" fill="#ffffff" fill-opacity="0.04"/><circle cx="850" cy="238" r="1" fill="#ffffff" fill-opacity="0.04"/><circle cx="884" cy="238" r="1" fill="#ffffff" fill-opacity="0.04"/><circle cx="918" cy="238" r="1" fill="#ffffff" fill-opacity="0.04"/><circle cx="952" cy="238" r="1" fill="#ffffff" fill-opacity="0.04"/><circle cx="986" cy="238" r="1" fill="#ffffff" fill-opacity="0.04"/><circle cx="1020" cy="238" r="1" fill="#ffffff" fill-opacity="0.04"/><circle cx="1054" cy="238" r="1" fill="#ffffff" fill-opacity="0.04"/><circle cx="1088" cy="238" r="1" fill="#ffffff" fill-opacity="0.04"/><circle cx="1122" cy="238" r="1" fill="#ffffff" fill-opacity="0.04"/><circle cx="1156" cy="238" r="1" fill="#ffffff" fill-opacity="0.04"/><circle cx="1190" cy="238" r="1" fill="#ffffff" fill-opacity="0.04"/><circle cx="1224" cy="238" r="1" fill="#ffffff" fill-opacity="0.04"/><circle cx="1258" cy="238" r="1" fill="#ffffff" fill-opacity="0.04"/><circle cx="0" cy="272" r="1" fill="#ffffff" fill-opacity="0.04"/><circle cx="34" cy="272" r="1" fill="#ffffff" fill-opacity="0.04"/><circle cx="68" cy="272" r="1" fill="#ffffff" fill-opacity="0.04"/><circle cx="102" cy="272" r="1" fill="#ffffff" fill-opacity="0.04"/><circle cx="136" cy="272" r="1" fill="#ffffff" fill-opacity="0.04"/><circle cx="170" cy="272" r="1" fill="#ffffff" fill-opacity="0.04"/><circle cx="204" cy="272" r="1" fill="#ffffff" fill-opacity="0.04"/><circle cx="238" cy="272" r="1" fill="#ffffff" fill-opacity="0.04"/><circle cx="272" cy="272" r="1" fill="#ffffff" fill-opacity="0.04"/><circle cx="306" cy="272" r="1" fill="#ffffff" fill-opacity="0.04"/><circle cx="340" cy="272" r="1" fill="#ffffff" fill-opacity="0.04"/><circle cx="374" cy="272" r="1" fill="#ffffff" fill-opacity="0.04"/><circle cx="408" cy="272" r="1" fill="#ffffff" fill-opacity="0.04"/><circle cx="442" cy="272" r="1" fill="#ffffff" fill-opacity="0.04"/><circle cx="476" cy="272" r="1" fill="#ffffff" fill-opacity="0.04"/><circle cx="510" cy="272" r="1" fill="#ffffff" fill-opacity="0.04"/><circle cx="544" cy="272" r="1" fill="#ffffff" fill-opacity="0.04"/><circle cx="578" cy="272" r="1" fill="#ffffff" fill-opacity="0.04"/><circle cx="612" cy="272" r="1" fill="#ffffff" fill-opacity="0.04"/><circle cx="646" cy="272" r="1" fill="#ffffff" fill-opacity="0.04"/><circle cx="680" cy="272" r="1" fill="#ffffff" fill-opacity="0.04"/><circle cx="714" cy="272" r="1" fill="#ffffff" fill-opacity="0.04"/><circle cx="748" cy="272" r="1" fill="#ffffff" fill-opacity="0.04"/><circle cx="782" cy="272" r="1" fill="#ffffff" fill-opacity="0.04"/><circle cx="816" cy="272" r="1" fill="#ffffff" fill-opacity="0.04"/><circle cx="850" cy="272" r="1" fill="#ffffff" fill-opacity="0.04"/><circle cx="884" cy="272" r="1" fill="#ffffff" fill-opacity="0.04"/><circle cx="918" cy="272" r="1" fill="#ffffff" fill-opacity="0.04"/><circle cx="952" cy="272" r="1" fill="#ffffff" fill-opacity="0.04"/><circle cx="986" cy="272" r="1" fill="#ffffff" fill-opacity="0.04"/><circle cx="1020" cy="272" r="1" fill="#ffffff" fill-opacity="0.04"/><circle cx="1054" cy="272" r="1" fill="#ffffff" fill-opacity="0.04"/><circle cx="1088" cy="272" r="1" fill="#ffffff" fill-opacity="0.04"/><circle cx="1122" cy="272" r="1" fill="#ffffff" fill-opacity="0.04"/><circle cx="1156" cy="272" r="1" fill="#ffffff" fill-opacity="0.04"/><circle cx="1190" cy="272" r="1" fill="#ffffff" fill-opacity="0.04"/><circle cx="1224" cy="272" r="1" fill="#ffffff" fill-opacity="0.04"/><circle cx="1258" cy="272" r="1" fill="#ffffff" fill-opacity="0.04"/><circle cx="0" cy="306" r="1" fill="#ffffff" fill-opacity="0.04"/><circle cx="34" cy="306" r="1" fill="#ffffff" fill-opacity="0.04"/><circle cx="68" cy="306" r="1" fill="#ffffff" fill-opacity="0.04"/><circle cx="102" cy="306" r="1" fill="#ffffff" fill-opacity="0.04"/><circle cx="136" cy="306" r="1" fill="#ffffff" fill-opacity="0.04"/><circle cx="170" cy="306" r="1" fill="#ffffff" fill-opacity="0.04"/><circle cx="204" cy="306" r="1" fill="#ffffff" fill-opacity="0.04"/><circle cx="238" cy="306" r="1" fill="#ffffff" fill-opacity="0.04"/><circle cx="272" cy="306" r="1" fill="#ffffff" fill-opacity="0.04"/><circle cx="306" cy="306" r="1" fill="#ffffff" fill-opacity="0.04"/><circle cx="340" cy="306" r="1" fill="#ffffff" fill-opacity="0.04"/><circle cx="374" cy="306" r="1" fill="#ffffff" fill-opacity="0.04"/><circle cx="408" cy="306" r="1" fill="#ffffff" fill-opacity="0.04"/><circle cx="442" cy="306" r="1" fill="#ffffff" fill-opacity="0.04"/><circle cx="476" cy="306" r="1" fill="#ffffff" fill-opacity="0.04"/><circle cx="510" cy="306" r="1" fill="#ffffff" fill-opacity="0.04"/><circle cx="544" cy="306" r="1" fill="#ffffff" fill-opacity="0.04"/><circle cx="578" cy="306" r="1" fill="#ffffff" fill-opacity="0.04"/><circle cx="612" cy="306" r="1" fill="#ffffff" fill-opacity="0.04"/><circle cx="646" cy="306" r="1" fill="#ffffff" fill-opacity="0.04"/><circle cx="680" cy="306" r="1" fill="#ffffff" fill-opacity="0.04"/><circle cx="714" cy="306" r="1" fill="#ffffff" fill-opacity="0.04"/><circle cx="748" cy="306" r="1" fill="#ffffff" fill-opacity="0.04"/><circle cx="782" cy="306" r="1" fill="#ffffff" fill-opacity="0.04"/><circle cx="816" cy="306" r="1" fill="#ffffff" fill-opacity="0.04"/><circle cx="850" cy="306" r="1" fill="#ffffff" fill-opacity="0.04"/><circle cx="884" cy="306" r="1" fill="#ffffff" fill-opacity="0.04"/><circle cx="918" cy="306" r="1" fill="#ffffff" fill-opacity="0.04"/><circle cx="952" cy="306" r="1" fill="#ffffff" fill-opacity="0.04"/><circle cx="986" cy="306" r="1" fill="#ffffff" fill-opacity="0.04"/><circle cx="1020" cy="306" r="1" fill="#ffffff" fill-opacity="0.04"/><circle cx="1054" cy="306" r="1" fill="#ffffff" fill-opacity="0.04"/><circle cx="1088" cy="306" r="1" fill="#ffffff" fill-opacity="0.04"/><circle cx="1122" cy="306" r="1" fill="#ffffff" fill-opacity="0.04"/><circle cx="1156" cy="306" r="1" fill="#ffffff" fill-opacity="0.04"/><circle cx="1190" cy="306" r="1" fill="#ffffff" fill-opacity="0.04"/><circle cx="1224" cy="306" r="1" fill="#ffffff" fill-opacity="0.04"/><circle cx="1258" cy="306" r="1" fill="#ffffff" fill-opacity="0.04"/><circle cx="0" cy="340" r="1" fill="#ffffff" fill-opacity="0.04"/><circle cx="34" cy="340" r="1" fill="#ffffff" fill-opacity="0.04"/><circle cx="68" cy="340" r="1" fill="#ffffff" fill-opacity="0.04"/><circle cx="102" cy="340" r="1" fill="#ffffff" fill-opacity="0.04"/><circle cx="136" cy="340" r="1" fill="#ffffff" fill-opacity="0.04"/><circle cx="170" cy="340" r="1" fill="#ffffff" fill-opacity="0.04"/><circle cx="204" cy="340" r="1" fill="#ffffff" fill-opacity="0.04"/><circle cx="238" cy="340" r="1" fill="#ffffff" fill-opacity="0.04"/><circle cx="272" cy="340" r="1" fill="#ffffff" fill-opacity="0.04"/><circle cx="306" cy="340" r="1" fill="#ffffff" fill-opacity="0.04"/><circle cx="340" cy="340" r="1" fill="#ffffff" fill-opacity="0.04"/><circle cx="374" cy="340" r="1" fill="#ffffff" fill-opacity="0.04"/><circle cx="408" cy="340" r="1" fill="#ffffff" fill-opacity="0.04"/><circle cx="442" cy="340" r="1" fill="#ffffff" fill-opacity="0.04"/><circle cx="476" cy="340" r="1" fill="#ffffff" fill-opacity="0.04"/><circle cx="510" cy="340" r="1" fill="#ffffff" fill-opacity="0.04"/><circle cx="544" cy="340" r="1" fill="#ffffff" fill-opacity="0.04"/><circle cx="578" cy="340" r="1" fill="#ffffff" fill-opacity="0.04"/><circle cx="612" cy="340" r="1" fill="#ffffff" fill-opacity="0.04"/><circle cx="646" cy="340" r="1" fill="#ffffff" fill-opacity="0.04"/><circle cx="680" cy="340" r="1" fill="#ffffff" fill-opacity="0.04"/><circle cx="714" cy="340" r="1" fill="#ffffff" fill-opacity="0.04"/><circle cx="748" cy="340" r="1" fill="#ffffff" fill-opacity="0.04"/><circle cx="782" cy="340" r="1" fill="#ffffff" fill-opacity="0.04"/><circle cx="816" cy="340" r="1" fill="#ffffff" fill-opacity="0.04"/><circle cx="850" cy="340" r="1" fill="#ffffff" fill-opacity="0.04"/><circle cx="884" cy="340" r="1" fill="#ffffff" fill-opacity="0.04"/><circle cx="918" cy="340" r="1" fill="#ffffff" fill-opacity="0.04"/><circle cx="952" cy="340" r="1" fill="#ffffff" fill-opacity="0.04"/><circle cx="986" cy="340" r="1" fill="#ffffff" fill-opacity="0.04"/><circle cx="1020" cy="340" r="1" fill="#ffffff" fill-opacity="0.04"/><circle cx="1054" cy="340" r="1" fill="#ffffff" fill-opacity="0.04"/><circle cx="1088" cy="340" r="1" fill="#ffffff" fill-opacity="0.04"/><circle cx="1122" cy="340" r="1" fill="#ffffff" fill-opacity="0.04"/><circle cx="1156" cy="340" r="1" fill="#ffffff" fill-opacity="0.04"/><circle cx="1190" cy="340" r="1" fill="#ffffff" fill-opacity="0.04"/><circle cx="1224" cy="340" r="1" fill="#ffffff" fill-opacity="0.04"/><circle cx="1258" cy="340" r="1" fill="#ffffff" fill-opacity="0.04"/>
  <ellipse cx="640.0" cy="120" rx="540" ry="200" fill="url(#glow)"/>

  <!-- top accent line -->
  <rect x="470.0" y="64" width="340" height="3" rx="2" fill="url(#accent)" opacity="0.9"/>

  <!-- NAME -->
  <text x="640.0" y="150" text-anchor="middle" filter="url(#soft)"
        font-family="DejaVu Sans, Verdana, sans-serif" font-size="74" font-weight="bold"
        fill="#ffffff" letter-spacing="1">Chetan Kumar M K</text>

  <!-- ROLE -->
  <text x="640.0" y="200" text-anchor="middle"
        font-family="DejaVu Sans Mono, monospace" font-size="23" fill="#6AA6FF" letter-spacing="3">
    FULL-STACK DEVELOPER · SaaS &amp; AI BUILDER
  </text>

  
  <g>
    <rect x="176" y="256" width="100" height="40" rx="20"
          fill="#0d1117" fill-opacity="0.55" stroke="#6AA6FF" stroke-opacity="0.55" stroke-width="1.2"/>
    <text x="226.0" y="282.0" text-anchor="middle"
          font-family="DejaVu Sans Mono, monospace" font-size="18" fill="#cfe0ff" font-weight="bold">React</text>
  </g>
  <g>
    <rect x="290" y="256" width="122" height="40" rx="20"
          fill="#0d1117" fill-opacity="0.55" stroke="#6AA6FF" stroke-opacity="0.55" stroke-width="1.2"/>
    <text x="351.0" y="282.0" text-anchor="middle"
          font-family="DejaVu Sans Mono, monospace" font-size="18" fill="#cfe0ff" font-weight="bold">Next.js</text>
  </g>
  <g>
    <rect x="426" y="256" width="122" height="40" rx="20"
          fill="#0d1117" fill-opacity="0.55" stroke="#6AA6FF" stroke-opacity="0.55" stroke-width="1.2"/>
    <text x="487.0" y="282.0" text-anchor="middle"
          font-family="DejaVu Sans Mono, monospace" font-size="18" fill="#cfe0ff" font-weight="bold">FastAPI</text>
  </g>
  <g>
    <rect x="562" y="256" width="156" height="40" rx="20"
          fill="#0d1117" fill-opacity="0.55" stroke="#6AA6FF" stroke-opacity="0.55" stroke-width="1.2"/>
    <text x="640.0" y="282.0" text-anchor="middle"
          font-family="DejaVu Sans Mono, monospace" font-size="18" fill="#cfe0ff" font-weight="bold">PostgreSQL</text>
  </g>
  <g>
    <rect x="732" y="256" width="156" height="40" rx="20"
          fill="#0d1117" fill-opacity="0.55" stroke="#6AA6FF" stroke-opacity="0.55" stroke-width="1.2"/>
    <text x="810.0" y="282.0" text-anchor="middle"
          font-family="DejaVu Sans Mono, monospace" font-size="18" fill="#cfe0ff" font-weight="bold">TypeScript</text>
  </g>
  <g>
    <rect x="902" y="256" width="77" height="40" rx="20"
          fill="#0d1117" fill-opacity="0.55" stroke="#6AA6FF" stroke-opacity="0.55" stroke-width="1.2"/>
    <text x="940.5" y="282.0" text-anchor="middle"
          font-family="DejaVu Sans Mono, monospace" font-size="18" fill="#cfe0ff" font-weight="bold">AWS</text>
  </g>
  <g>
    <rect x="993" y="256" width="111" height="40" rx="20"
          fill="#0d1117" fill-opacity="0.55" stroke="#6AA6FF" stroke-opacity="0.55" stroke-width="1.2"/>
    <text x="1048.5" y="282.0" text-anchor="middle"
          font-family="DejaVu Sans Mono, monospace" font-size="18" fill="#cfe0ff" font-weight="bold">Docker</text>
  </g>
</svg>